<mxfile host="app.diagrams.net" modified="2024-03-27T07:15:42.490Z" agent="Mozilla/5.0 (Windows NT 10.0; Win64; x64; rv:125.0) Gecko/20100101 Firefox/125.0" etag="OW_UHqU90PVaVKq_imAl" version="24.2.0" type="device">
  <diagram name="Page-1" id="bzj445RVNB7UyQZ4POsY">
    <mxGraphModel dx="2585" dy="965" grid="1" gridSize="10" guides="1" tooltips="1" connect="1" arrows="1" fold="1" page="1" pageScale="1" pageWidth="850" pageHeight="1100" math="0" shadow="0">
      <root>
        <mxCell id="0" />
        <mxCell id="1" parent="0" />
        <mxCell id="MKIxhqNiVSlJLyPWFQ5s-4" value="" style="edgeStyle=orthogonalEdgeStyle;rounded=0;orthogonalLoop=1;jettySize=auto;html=1;" edge="1" parent="1" source="MKIxhqNiVSlJLyPWFQ5s-2" target="MKIxhqNiVSlJLyPWFQ5s-3">
          <mxGeometry relative="1" as="geometry" />
        </mxCell>
        <mxCell id="MKIxhqNiVSlJLyPWFQ5s-2" value="&lt;div&gt;Start Cancel&lt;/div&gt;&lt;div&gt;Ticket&lt;br&gt;&lt;/div&gt;" style="ellipse;whiteSpace=wrap;html=1;aspect=fixed;" vertex="1" parent="1">
          <mxGeometry x="380" y="50" width="80" height="80" as="geometry" />
        </mxCell>
        <mxCell id="MKIxhqNiVSlJLyPWFQ5s-6" value="" style="edgeStyle=orthogonalEdgeStyle;rounded=0;orthogonalLoop=1;jettySize=auto;html=1;" edge="1" parent="1" source="MKIxhqNiVSlJLyPWFQ5s-3" target="MKIxhqNiVSlJLyPWFQ5s-5">
          <mxGeometry relative="1" as="geometry" />
        </mxCell>
        <mxCell id="MKIxhqNiVSlJLyPWFQ5s-3" value="Scan user personal number/name and seat info" style="whiteSpace=wrap;html=1;" vertex="1" parent="1">
          <mxGeometry x="280" y="220" width="120" height="60" as="geometry" />
        </mxCell>
        <mxCell id="MKIxhqNiVSlJLyPWFQ5s-12" value="" style="edgeStyle=orthogonalEdgeStyle;rounded=0;orthogonalLoop=1;jettySize=auto;html=1;" edge="1" parent="1" source="MKIxhqNiVSlJLyPWFQ5s-5" target="MKIxhqNiVSlJLyPWFQ5s-11">
          <mxGeometry relative="1" as="geometry" />
        </mxCell>
        <mxCell id="MKIxhqNiVSlJLyPWFQ5s-38" value="&lt;font style=&quot;font-size: 24px;&quot;&gt;False&lt;br&gt;&lt;/font&gt;" style="edgeLabel;html=1;align=center;verticalAlign=middle;resizable=0;points=[];" vertex="1" connectable="0" parent="MKIxhqNiVSlJLyPWFQ5s-12">
          <mxGeometry x="-0.124" y="-2" relative="1" as="geometry">
            <mxPoint as="offset" />
          </mxGeometry>
        </mxCell>
        <mxCell id="MKIxhqNiVSlJLyPWFQ5s-14" style="edgeStyle=orthogonalEdgeStyle;rounded=0;orthogonalLoop=1;jettySize=auto;html=1;entryX=0;entryY=0.5;entryDx=0;entryDy=0;" edge="1" parent="1" source="MKIxhqNiVSlJLyPWFQ5s-5" target="MKIxhqNiVSlJLyPWFQ5s-10">
          <mxGeometry relative="1" as="geometry" />
        </mxCell>
        <mxCell id="MKIxhqNiVSlJLyPWFQ5s-15" value="&lt;font size=&quot;3&quot;&gt;True&lt;/font&gt;" style="edgeLabel;html=1;align=center;verticalAlign=middle;resizable=0;points=[];" vertex="1" connectable="0" parent="MKIxhqNiVSlJLyPWFQ5s-14">
          <mxGeometry x="-0.0476" y="-2" relative="1" as="geometry">
            <mxPoint as="offset" />
          </mxGeometry>
        </mxCell>
        <mxCell id="MKIxhqNiVSlJLyPWFQ5s-5" value="&lt;font size=&quot;3&quot;&gt;correctInfo?&lt;/font&gt;" style="rhombus;whiteSpace=wrap;html=1;" vertex="1" parent="1">
          <mxGeometry x="255" y="350" width="170" height="80" as="geometry" />
        </mxCell>
        <mxCell id="MKIxhqNiVSlJLyPWFQ5s-18" value="" style="edgeStyle=orthogonalEdgeStyle;rounded=0;orthogonalLoop=1;jettySize=auto;html=1;" edge="1" parent="1" source="MKIxhqNiVSlJLyPWFQ5s-10" target="MKIxhqNiVSlJLyPWFQ5s-17">
          <mxGeometry relative="1" as="geometry" />
        </mxCell>
        <mxCell id="MKIxhqNiVSlJLyPWFQ5s-19" value="&lt;font style=&quot;font-size: 18px;&quot;&gt;True&lt;br&gt;&lt;/font&gt;" style="edgeLabel;html=1;align=center;verticalAlign=middle;resizable=0;points=[];" vertex="1" connectable="0" parent="MKIxhqNiVSlJLyPWFQ5s-18">
          <mxGeometry x="-0.0167" y="-1" relative="1" as="geometry">
            <mxPoint as="offset" />
          </mxGeometry>
        </mxCell>
        <mxCell id="MKIxhqNiVSlJLyPWFQ5s-21" value="" style="edgeStyle=orthogonalEdgeStyle;rounded=0;orthogonalLoop=1;jettySize=auto;html=1;" edge="1" parent="1" source="MKIxhqNiVSlJLyPWFQ5s-10" target="MKIxhqNiVSlJLyPWFQ5s-20">
          <mxGeometry relative="1" as="geometry" />
        </mxCell>
        <mxCell id="MKIxhqNiVSlJLyPWFQ5s-22" value="&lt;font style=&quot;font-size: 18px;&quot;&gt;False&lt;br&gt;&lt;/font&gt;" style="edgeLabel;html=1;align=center;verticalAlign=middle;resizable=0;points=[];" vertex="1" connectable="0" parent="MKIxhqNiVSlJLyPWFQ5s-21">
          <mxGeometry x="-0.1714" relative="1" as="geometry">
            <mxPoint as="offset" />
          </mxGeometry>
        </mxCell>
        <mxCell id="MKIxhqNiVSlJLyPWFQ5s-10" value="&lt;font style=&quot;font-size: 18px;&quot;&gt;user &amp;gt;= 18&lt;/font&gt;" style="rhombus;whiteSpace=wrap;html=1;" vertex="1" parent="1">
          <mxGeometry x="530" y="350" width="170" height="80" as="geometry" />
        </mxCell>
        <mxCell id="MKIxhqNiVSlJLyPWFQ5s-23" style="edgeStyle=orthogonalEdgeStyle;rounded=0;orthogonalLoop=1;jettySize=auto;html=1;" edge="1" parent="1" source="MKIxhqNiVSlJLyPWFQ5s-11" target="MKIxhqNiVSlJLyPWFQ5s-3">
          <mxGeometry relative="1" as="geometry">
            <mxPoint x="90" y="140" as="targetPoint" />
            <Array as="points">
              <mxPoint x="80" y="240" />
              <mxPoint x="91" y="240" />
              <mxPoint x="91" y="250" />
            </Array>
          </mxGeometry>
        </mxCell>
        <mxCell id="MKIxhqNiVSlJLyPWFQ5s-11" value="&lt;div&gt;print: Please correct your info and try again&lt;/div&gt;" style="whiteSpace=wrap;html=1;" vertex="1" parent="1">
          <mxGeometry x="20" y="360" width="120" height="60" as="geometry" />
        </mxCell>
        <mxCell id="MKIxhqNiVSlJLyPWFQ5s-31" style="edgeStyle=orthogonalEdgeStyle;rounded=0;orthogonalLoop=1;jettySize=auto;html=1;" edge="1" parent="1" source="MKIxhqNiVSlJLyPWFQ5s-17">
          <mxGeometry relative="1" as="geometry">
            <mxPoint x="880" y="610" as="targetPoint" />
          </mxGeometry>
        </mxCell>
        <mxCell id="MKIxhqNiVSlJLyPWFQ5s-17" value="&lt;font style=&quot;font-size: 18px;&quot;&gt;profit - 299.90&lt;/font&gt;" style="whiteSpace=wrap;html=1;" vertex="1" parent="1">
          <mxGeometry x="820" y="360" width="120" height="60" as="geometry" />
        </mxCell>
        <mxCell id="MKIxhqNiVSlJLyPWFQ5s-26" value="" style="edgeStyle=orthogonalEdgeStyle;rounded=0;orthogonalLoop=1;jettySize=auto;html=1;" edge="1" parent="1" source="MKIxhqNiVSlJLyPWFQ5s-20" target="MKIxhqNiVSlJLyPWFQ5s-25">
          <mxGeometry relative="1" as="geometry" />
        </mxCell>
        <mxCell id="MKIxhqNiVSlJLyPWFQ5s-20" value="&lt;font style=&quot;font-size: 18px;&quot;&gt;profit - 149.90&lt;/font&gt;" style="whiteSpace=wrap;html=1;" vertex="1" parent="1">
          <mxGeometry x="555" y="600" width="120" height="60" as="geometry" />
        </mxCell>
        <mxCell id="MKIxhqNiVSlJLyPWFQ5s-33" value="" style="edgeStyle=orthogonalEdgeStyle;rounded=0;orthogonalLoop=1;jettySize=auto;html=1;" edge="1" parent="1" source="MKIxhqNiVSlJLyPWFQ5s-25">
          <mxGeometry relative="1" as="geometry">
            <mxPoint x="940" y="740" as="targetPoint" />
          </mxGeometry>
        </mxCell>
        <mxCell id="MKIxhqNiVSlJLyPWFQ5s-25" value="&lt;font style=&quot;font-size: 18px;&quot;&gt;update available seat&lt;br&gt;&lt;/font&gt;" style="whiteSpace=wrap;html=1;" vertex="1" parent="1">
          <mxGeometry x="810" y="600" width="280" height="60" as="geometry" />
        </mxCell>
        <mxCell id="MKIxhqNiVSlJLyPWFQ5s-37" value="" style="edgeStyle=orthogonalEdgeStyle;rounded=0;orthogonalLoop=1;jettySize=auto;html=1;" edge="1" parent="1" source="MKIxhqNiVSlJLyPWFQ5s-34" target="MKIxhqNiVSlJLyPWFQ5s-36">
          <mxGeometry relative="1" as="geometry" />
        </mxCell>
        <mxCell id="MKIxhqNiVSlJLyPWFQ5s-34" value="&lt;font style=&quot;font-size: 18px;&quot;&gt;Print: Ticket Cancelled&lt;br&gt;&lt;/font&gt;" style="whiteSpace=wrap;html=1;" vertex="1" parent="1">
          <mxGeometry x="880" y="740" width="120" height="60" as="geometry" />
        </mxCell>
        <mxCell id="MKIxhqNiVSlJLyPWFQ5s-36" value="&lt;font style=&quot;font-size: 24px;&quot;&gt;End&lt;/font&gt;" style="ellipse;whiteSpace=wrap;html=1;" vertex="1" parent="1">
          <mxGeometry x="900" y="920" width="80" height="80" as="geometry" />
        </mxCell>
      </root>
    </mxGraphModel>
  </diagram>
</mxfile>
